<?xml version="1.0" encoding="utf-8"?>
<!-- Generator: Adobe Illustrator 16.0.4, SVG Export Plug-In . SVG Version: 6.00 Build 0)  -->
<!DOCTYPE svg PUBLIC "-//W3C//DTD SVG 1.1//EN" "http://www.w3.org/Graphics/SVG/1.1/DTD/svg11.dtd">
<svg version="1.1" id="Layer_1" xmlns="http://www.w3.org/2000/svg" xmlns:xlink="http://www.w3.org/1999/xlink" x="0px" y="0px"
	 width="200pt" height="120pt" viewBox="0 0 201 69" enable-background="new 0 0 201 69" xml:space="preserve">
<g id="Layer_1_1_">
	<g id="Layer_2">
		<g enable-background="new    ">
			<path d="M10.266,9.944c0.195-0.033,0.319-0.049,0.374-0.049c0.369,0,0.976,0.021,1.822,0.064
				c0.444,0.012,0.748,0.017,0.911,0.017c0.238,0,0.743-0.021,1.513-0.065l2.765-0.162c0.726-0.065,1.572-0.098,2.537-0.098
				c1.702,0,3.058,0.241,4.066,0.723c1.008,0.482,1.786,1.237,2.334,2.267c0.547,1.028,0.821,2.052,0.821,3.069
				c0,1.7-0.596,3.168-1.789,4.402s-2.797,1.852-4.814,1.852c-0.564,0-1.036-0.057-1.415-0.171c-0.38-0.113-0.813-0.333-1.301-0.658
				c-0.206-0.142-0.331-0.287-0.374-0.439c0.043-0.076,0.103-0.13,0.179-0.163c0.152,0,0.309,0.033,0.472,0.098
				c0.369,0.131,0.835,0.195,1.399,0.195c0.856,0,1.667-0.211,2.432-0.633c0.765-0.423,1.342-1.023,1.732-1.803
				c0.39-0.779,0.585-1.603,0.585-2.469c0-0.844-0.206-1.664-0.617-2.46s-0.953-1.432-1.624-1.908
				c-0.379-0.271-0.96-0.498-1.745-0.682c-0.785-0.185-1.394-0.276-1.826-0.276c-1.342,0-2.137,0.098-2.386,0.292L16.3,11.114
				l0.049,1.837l-0.016,0.325c-0.022,0.293-0.033,0.742-0.033,1.349c0,2.21,0.033,3.586,0.098,4.128v0.91l0.211,7.427
				c0,0.108-0.014,0.31-0.041,0.602c-0.027,0.293-0.041,0.547-0.041,0.764c0,0.521,0.043,0.916,0.13,1.187
				c0.26,0.075,1.019,0.255,2.277,0.536c0.586,0.141,0.905,0.223,0.96,0.244c0.086,0.032,0.163,0.104,0.228,0.211
				c-0.043,0.163-0.101,0.269-0.171,0.317s-0.209,0.073-0.415,0.073c-0.13,0-0.434-0.027-0.911-0.081
				c-0.933-0.098-1.665-0.146-2.196-0.146l-2.862,0.114l-1.708-0.049c-0.108,0-0.423,0.01-0.943,0.032L10.9,30.471l2.114-0.406
				c0.347-0.098,0.559-0.195,0.634-0.293c0.108-0.151,0.163-0.449,0.163-0.894c0-0.098,0.005-0.309,0.017-0.634
				c0.011-0.228,0.016-0.542,0.016-0.942c0-1.278-0.054-4.004-0.163-8.175c-0.043-1.95-0.065-3.933-0.065-5.948v-0.276
				c0-0.78-0.12-1.273-0.358-1.479c-0.401-0.357-1.404-0.65-3.009-0.878c-0.054-0.119-0.081-0.217-0.081-0.293
				C10.168,10.166,10.2,10.063,10.266,9.944z"/>
			<path d="M40.486,28.486c0.065,0.141,0.098,0.244,0.098,0.309c0,0.163-0.13,0.45-0.391,0.862c-0.336,0.542-0.71,0.938-1.122,1.188
				c-0.26,0.162-0.618,0.244-1.074,0.244c-0.781,0-1.366-0.239-1.756-0.716c-0.239-0.282-0.407-0.786-0.504-1.513l-1.822,1.269
				c-0.64,0.369-1.128,0.602-1.464,0.699c-0.542,0.141-1.193,0.212-1.952,0.212c-0.553,0-0.99-0.166-1.31-0.496
				c-0.32-0.331-0.479-0.757-0.479-1.277c0-0.748,0.459-1.643,1.377-2.684s2.166-1.892,3.741-2.554
				c1.109-0.466,1.788-0.765,2.038-0.895c0.022-0.357,0.033-0.748,0.033-1.171c0-1.377-0.193-2.31-0.579-2.798
				c-0.386-0.487-0.938-0.731-1.656-0.731c-0.75,0-1.452,0.293-2.104,0.878c-0.403,0.369-0.707,1.063-0.914,2.082
				c-0.065,0.282-0.19,0.586-0.375,0.911c-0.466,0.304-0.84,0.455-1.122,0.455c-0.239,0-0.456-0.07-0.65-0.211
				c-0.109-0.076-0.163-0.163-0.163-0.261c0-0.281,0.301-0.919,0.902-1.911c0.602-0.992,1.361-1.734,2.277-2.229
				c0.916-0.493,1.716-0.739,2.399-0.739c0.933,0,1.626,0.084,2.082,0.252s0.856,0.463,1.204,0.886
				c0.347,0.423,0.558,0.885,0.634,1.383c0.043,0.238,0.065,1.09,0.065,2.554l-0.049,2.586l0.017,1.887
				c0,0.25-0.006,0.461-0.017,0.635c-0.011,0.314-0.016,0.548-0.016,0.699c0,0.357,0.103,0.646,0.309,0.862s0.45,0.325,0.732,0.325
				c0.412,0,0.765-0.206,1.057-0.618l0.195-0.261C40.182,28.567,40.301,28.529,40.486,28.486z M35.72,28.015
				c0.076-1.377,0.114-2.348,0.114-2.911c0-0.293-0.017-0.688-0.049-1.188c-0.729,0.26-1.502,0.656-2.317,1.188
				c-0.816,0.531-1.463,1.144-1.942,1.838c-0.348,0.498-0.522,0.97-0.522,1.415c0,0.423,0.145,0.775,0.433,1.057
				c0.289,0.282,0.65,0.423,1.085,0.423c0.337,0,0.745-0.119,1.224-0.357C34.376,29.164,35.034,28.676,35.72,28.015z"/>
			<path d="M41.641,10.546v-0.357c0.304-0.098,0.64-0.201,1.008-0.31c0.545-0.173,1.352-0.439,2.42-0.797h0.768
				c0,0.521,0,0.819,0,0.896c0,8.909-0.027,14.221-0.081,15.936c-0.033,1.01-0.049,1.546-0.049,1.611
				c0,1.216,0.049,1.894,0.146,2.035c0.13,0.195,0.528,0.331,1.195,0.407c0.667,0.075,1.06,0.151,1.179,0.228
				c0.087,0.043,0.13,0.119,0.13,0.228c0,0.119-0.024,0.203-0.073,0.252s-0.139,0.073-0.269,0.073c-0.076,0-0.646-0.019-1.708-0.056
				l-2.13-0.074l-2.733,0.13c-0.173,0.011-0.304-0.022-0.39-0.101c-0.065-0.055-0.098-0.133-0.098-0.233
				c0-0.11,0.035-0.191,0.106-0.241c0.07-0.05,0.46-0.135,1.171-0.254c0.71-0.12,1.117-0.22,1.22-0.302
				c0.103-0.081,0.171-0.263,0.204-0.545c0.043-0.39,0.065-1.49,0.065-3.302l-0.016-3.74l0.049-3.871l-0.017-3.871l0.049-1.903
				c0-0.38-0.06-0.653-0.179-0.821c-0.12-0.168-0.374-0.334-0.765-0.496C42.259,10.828,41.857,10.654,41.641,10.546z"/>
			<path d="M49.611,24.16c0-0.737,0.154-1.526,0.463-2.367c0.309-0.84,0.778-1.594,1.407-2.261s1.296-1.163,2.001-1.488
				c0.986-0.455,2.19-0.683,3.611-0.683c2.027,0,3.722,0.693,5.083,2.081c1.361,1.389,2.042,3.059,2.042,5.01
				c0,1.735-0.713,3.283-2.139,4.644c-1.426,1.361-3.229,2.042-5.408,2.042c-1.345,0-2.614-0.353-3.806-1.058
				c-0.889-0.531-1.654-1.317-2.293-2.358C49.93,26.681,49.611,25.493,49.611,24.16z M56.808,30.503
				c0.826,0,1.621-0.222,2.387-0.667c0.766-0.444,1.376-1.157,1.833-2.139c0.457-0.981,0.685-2.117,0.685-3.407
				c0-0.846-0.177-1.827-0.53-2.944c-0.353-1.116-0.896-1.954-1.629-2.513c-0.733-0.559-1.594-0.838-2.582-0.838
				c-0.717,0-1.447,0.168-2.191,0.504c-0.744,0.337-1.374,0.982-1.89,1.936c-0.516,0.955-0.773,2.311-0.773,4.066
				c0,1.974,0.448,3.468,1.344,4.481C54.356,29.996,55.472,30.503,56.808,30.503z"/>
			<path d="M73.569,30.178c0.152-0.087,0.287-0.13,0.406-0.13h0.374c0.076,0,0.206-0.006,0.39-0.017
				c0.834-0.075,1.328-0.151,1.479-0.228c0.379-0.206,0.705-0.563,0.976-1.073c0.564-1.106,1.198-2.673,1.903-4.701
				c0.336-0.965,0.548-1.55,0.635-1.756c0.271-0.651,0.531-1.334,0.781-2.05l1.529-4.277c0.239-0.673,0.813-2.213,1.725-4.62
				c0.228-0.606,0.504-1.42,0.83-2.439l0.479-0.032l0.569,0.016c0.465,0.922,0.877,1.914,1.234,2.977
				c0.195,0.564,0.515,1.404,0.959,2.521l2.469,6.685l1.316,3.628c0.693,2.06,1.149,3.326,1.366,3.798
				c0.217,0.472,0.417,0.783,0.602,0.935c0.054,0.044,0.257,0.108,0.61,0.195s0.599,0.152,0.74,0.195
				c0.499,0.141,0.846,0.26,1.041,0.357c0.043,0.12,0.065,0.212,0.065,0.277c0,0.054-0.016,0.135-0.049,0.243
				c-0.347,0.012-0.591,0.017-0.732,0.017c-0.553,0-1.529-0.017-2.928-0.049l-1.626-0.036l-1.968,0.024
				c-0.13,0-0.263-0.007-0.399-0.019c-0.135-0.013-0.252-0.019-0.35-0.019h-0.358c-0.119-0.011-0.228-0.043-0.325-0.098
				c0-0.151,0.027-0.298,0.082-0.439c0.13-0.064,0.249-0.103,0.358-0.113l1.707-0.114c0.444-0.021,0.781-0.081,1.008-0.179
				c0.065-0.196,0.098-0.343,0.098-0.44c0-0.195-0.141-0.701-0.423-1.516c-0.195-0.543-0.366-1.059-0.512-1.548
				c-0.146-0.489-0.723-2.097-1.73-4.823c-0.445-0.076-0.835-0.114-1.171-0.114l-3.481,0.032l-1.024-0.016
				c-0.369,0-0.775,0.026-1.22,0.081c-0.141,0.325-0.233,0.559-0.277,0.699l-1.433,4.473c-0.607,1.703-0.911,2.641-0.911,2.814
				c0,0.098,0.049,0.26,0.146,0.487c0.228,0.065,0.531,0.125,0.911,0.18l2.212,0.194c0.119,0.098,0.179,0.185,0.179,0.261
				c0,0.055-0.016,0.136-0.048,0.244c-0.488,0.011-0.862,0.016-1.123,0.016c-0.868,0-1.876-0.026-3.025-0.081
				c-0.531-0.021-0.911-0.032-1.138-0.032c-0.228,0-0.624,0.011-1.188,0.032c-0.369,0.021-0.634,0.032-0.797,0.032
				c-0.26,0-0.597-0.016-1.009-0.049v-0.098C73.504,30.411,73.526,30.308,73.569,30.178z M81.331,20.419
				c1.16,0.064,2.483,0.098,3.968,0.098c0.846,0,1.588-0.027,2.229-0.082c-0.108-0.422-0.233-0.818-0.374-1.187
				c-0.704-1.886-1.093-2.927-1.169-3.121l-1.479-3.756l-0.163-0.293c-0.065,0.13-0.304,0.688-0.716,1.675
				c-0.695,1.69-1.195,3.008-1.499,3.95c-0.142,0.423-0.288,0.843-0.44,1.261c-0.152,0.417-0.247,0.71-0.285,0.878
				s-0.095,0.339-0.171,0.512L81.331,20.419z"/>
			<path d="M97.153,10.546v-0.357c0.304-0.098,0.64-0.201,1.008-0.31c0.545-0.173,1.352-0.439,2.42-0.797h0.768
				c0,0.521,0,0.819,0,0.896c0,8.909-0.027,14.221-0.081,15.936c-0.032,1.01-0.049,1.546-0.049,1.611
				c0,1.216,0.049,1.894,0.146,2.035c0.13,0.195,0.528,0.331,1.195,0.407c0.667,0.075,1.06,0.151,1.179,0.228
				c0.088,0.043,0.131,0.119,0.131,0.228c0,0.119-0.024,0.203-0.073,0.252s-0.139,0.073-0.269,0.073
				c-0.076,0-0.646-0.019-1.708-0.056l-2.13-0.074l-2.733,0.13c-0.173,0.011-0.304-0.022-0.39-0.101
				c-0.065-0.055-0.098-0.133-0.098-0.233c0-0.11,0.035-0.191,0.106-0.241c0.07-0.05,0.46-0.135,1.171-0.254
				c0.71-0.12,1.117-0.22,1.22-0.302c0.103-0.081,0.171-0.263,0.204-0.545c0.043-0.39,0.065-1.49,0.065-3.302l-0.016-3.74
				l0.049-3.871l-0.017-3.871l0.049-1.903c0-0.38-0.06-0.653-0.179-0.821c-0.12-0.168-0.374-0.334-0.765-0.496
				C97.771,10.828,97.37,10.654,97.153,10.546z"/>
			<path d="M108.588,14.628l0.504,0.017l0.064,1.545l-0.032,2.001c0.206,0.011,0.336,0.017,0.391,0.017
				c0.282,0,0.818-0.021,1.61-0.065c0.51-0.032,0.997-0.049,1.463-0.049c0.217,0,0.543,0.006,0.977,0.017
				c0.021,0.217,0.033,0.39,0.033,0.521c0,0.141-0.033,0.363-0.098,0.667h-0.277l-2.521,0.081l-1.252,0.032l-0.293,0.032
				c-0.086,0.271-0.13,0.586-0.13,0.943l0.049,2.44l-0.032,4.294c0,1.128,0.146,1.876,0.439,2.244
				c0.281,0.38,0.704,0.569,1.268,0.569c0.282,0,0.814-0.087,1.595-0.26c0.238-0.055,0.558-0.233,0.96-0.537h0.146
				c0.098,0,0.176,0.03,0.235,0.09s0.089,0.138,0.089,0.235l-0.016,0.114c-0.467,0.51-1,0.881-1.602,1.114
				c-0.603,0.232-1.402,0.35-2.4,0.35c-0.705,0-1.287-0.163-1.748-0.488s-0.756-0.71-0.887-1.154
				c-0.13-0.445-0.195-1.415-0.195-2.912l0.065-3.659l-0.017-1.757v-0.65c0-0.304-0.01-0.607-0.032-0.911l-0.276-0.017l-1.334,0.049
				l-0.13,0.017c-0.119,0-0.209-0.027-0.269-0.081c-0.06-0.055-0.09-0.119-0.09-0.195c0-0.13,0.041-0.236,0.123-0.317
				c0.081-0.081,0.328-0.209,0.74-0.382c0.281-0.119,0.609-0.345,0.983-0.675c0.374-0.331,0.691-0.697,0.952-1.099
				c0.129-0.217,0.314-0.629,0.553-1.236C108.37,15.127,108.5,14.812,108.588,14.628z"/>
			<path d="M114.834,24.16c0-0.737,0.154-1.526,0.463-2.367c0.309-0.84,0.777-1.594,1.406-2.261s1.297-1.163,2.002-1.488
				c0.986-0.455,2.189-0.683,3.61-0.683c2.027,0,3.722,0.693,5.083,2.081c1.36,1.389,2.041,3.059,2.041,5.01
				c0,1.735-0.713,3.283-2.139,4.644c-1.426,1.361-3.229,2.042-5.408,2.042c-1.345,0-2.613-0.353-3.807-1.058
				c-0.889-0.531-1.653-1.317-2.293-2.358C115.152,26.681,114.834,25.493,114.834,24.16z M122.03,30.503
				c0.825,0,1.621-0.222,2.388-0.667c0.766-0.444,1.376-1.157,1.832-2.139c0.457-0.981,0.685-2.117,0.685-3.407
				c0-0.846-0.177-1.827-0.53-2.944c-0.353-1.116-0.896-1.954-1.629-2.513c-0.732-0.559-1.594-0.838-2.582-0.838
				c-0.717,0-1.447,0.168-2.191,0.504c-0.744,0.337-1.374,0.982-1.891,1.936c-0.516,0.955-0.773,2.311-0.773,4.066
				c0,1.974,0.448,3.468,1.344,4.481C119.578,29.996,120.694,30.503,122.03,30.503z"/>
		</g>
	</g>
	<g id="Layer_3">
		<g enable-background="new    ">
			<path d="M16.399,43.61c-1.182,0-1.231,0.05-1.231,0.788v3.471c0,2.584,0.123,2.929,1.501,3.076l0.714,0.074
				c0.147,0.098,0.099,0.541-0.049,0.615c-1.329-0.05-2.166-0.074-3.126-0.074c-1.058,0-1.895,0.049-2.855,0.074
				c-0.147-0.074-0.197-0.468-0.049-0.615l0.418-0.074c1.378-0.246,1.428-0.492,1.428-3.076v-8.861c0-2.584-0.172-3.002-1.452-3.101
				l-0.64-0.05c-0.147-0.098-0.098-0.541,0.049-0.615c1.206,0.025,2.043,0.074,3.101,0.074c0.96,0,1.797-0.024,2.855-0.074
				c0.147,0.074,0.197,0.518,0.049,0.615l-0.467,0.05c-1.428,0.147-1.477,0.517-1.477,3.101v2.831c0,0.763,0.049,0.787,1.231,0.787
				h7.039c1.181,0,1.23-0.024,1.23-0.787v-2.831c0-2.584-0.049-2.953-1.501-3.101l-0.467-0.05c-0.148-0.098-0.099-0.541,0.049-0.615
				c1.132,0.05,1.969,0.074,2.979,0.074c0.959,0,1.796-0.024,2.904-0.074c0.147,0.074,0.197,0.518,0.049,0.615l-0.517,0.05
				c-1.428,0.147-1.477,0.517-1.477,3.101v8.861c0,2.584,0.049,2.904,1.477,3.076l0.591,0.074c0.147,0.098,0.098,0.541-0.049,0.615
				c-1.182-0.05-2.019-0.074-2.978-0.074c-1.009,0-1.896,0.024-2.979,0.074c-0.147-0.074-0.197-0.468-0.049-0.615l0.467-0.074
				c1.501-0.246,1.501-0.492,1.501-3.076v-3.471c0-0.738-0.049-0.788-1.23-0.788H16.399z"/>
			<path d="M31.808,44.497c0-0.96,0-1.083-0.665-1.526l-0.222-0.147c-0.098-0.099-0.098-0.369,0.025-0.443
				c0.566-0.196,1.969-0.837,2.535-1.206c0.123,0,0.222,0.05,0.246,0.148c-0.049,0.861-0.098,2.042-0.098,3.052v4.43
				c0,1.772,0.049,2.019,0.935,2.142l0.517,0.074c0.172,0.123,0.123,0.541-0.049,0.615c-0.738-0.05-1.452-0.074-2.313-0.074
				c-0.886,0-1.625,0.024-2.313,0.074c-0.172-0.074-0.222-0.492-0.049-0.615l0.517-0.074c0.911-0.123,0.936-0.369,0.936-2.142
				V44.497z M33.851,37.482c0,0.886-0.616,1.279-1.305,1.279c-0.763,0-1.255-0.565-1.255-1.23c0-0.812,0.591-1.329,1.329-1.329
				S33.851,36.793,33.851,37.482z"/>
			<path d="M46.699,42.404c0.271,0.123,0.222,0.96-0.147,1.01h-1.772c0.049,0.418,0.049,0.837,0.049,1.255
				c0,1.698-1.009,3.913-4.135,3.913c-0.443,0-0.788-0.049-1.083-0.073c-0.295,0.172-1.083,0.64-1.083,1.354
				c0,0.566,0.566,1.034,1.723,1.034c0.837,0,1.846-0.074,2.929-0.074c1.378,0,3.446,0.246,3.446,2.707
				c0,2.683-2.929,4.652-6.128,4.652c-3.027,0-4.086-1.625-4.086-2.855c0-0.394,0.099-0.714,0.271-0.91
				c0.418-0.443,1.107-1.083,1.673-1.649c0.222-0.222,0.418-0.443,0.197-0.591c-0.96-0.246-1.797-1.083-1.797-1.944
				c0-0.123,0.099-0.222,0.369-0.418c0.418-0.271,0.886-0.689,1.305-1.133c0.123-0.147,0.246-0.345,0.246-0.468
				c-0.837-0.442-1.846-1.402-1.846-2.978c0-2.117,1.821-3.717,4.012-3.717c0.936,0,1.797,0.246,2.363,0.492
				c0.787,0.345,0.959,0.394,1.501,0.394H46.699z M41.555,52.348c-0.788,0-1.772,0.05-2.117,0.271
				c-0.59,0.369-1.181,1.132-1.181,2.067c0,1.329,1.058,2.437,3.298,2.437c2.19,0,3.643-1.23,3.643-2.634
				c0-1.501-1.034-2.142-2.806-2.142H41.555z M43.081,45.309c0-1.673-0.689-3.076-2.19-3.076c-1.181,0-2.067,1.083-2.067,2.757
				c0,1.747,1.059,2.88,2.24,2.88C42.392,47.869,43.081,46.811,43.081,45.309z"/>
			<path d="M48.865,37.679c0-1.452-0.025-1.6-0.763-2.042l-0.246-0.148c-0.123-0.073-0.123-0.418,0-0.492
				c0.615-0.196,1.772-0.565,2.658-1.033c0.099,0,0.197,0.049,0.246,0.147c-0.024,0.738-0.074,1.969-0.074,3.052v5.169
				c0,0.222,0.024,0.418,0.098,0.468c0.886-0.689,2.068-1.28,3.323-1.28c2.338,0,3.175,1.452,3.175,3.175v4.11
				c0,1.772,0.049,2.043,0.935,2.142l0.665,0.074c0.172,0.123,0.123,0.541-0.049,0.615c-0.886-0.05-1.6-0.074-2.461-0.074
				c-0.886,0-1.625,0.024-2.289,0.074c-0.172-0.074-0.222-0.492-0.049-0.615l0.492-0.074c0.911-0.147,0.936-0.369,0.936-2.142v-3.52
				c0-1.575-0.763-2.634-2.338-2.634c-0.837,0-1.477,0.296-1.92,0.665c-0.443,0.369-0.517,0.492-0.517,1.354v4.135
				c0,1.772,0.049,2.019,0.935,2.142l0.517,0.074c0.172,0.098,0.123,0.541-0.049,0.615c-0.738-0.05-1.452-0.074-2.313-0.074
				c-0.886,0-1.625,0.024-2.412,0.074c-0.172-0.074-0.222-0.492-0.049-0.615l0.615-0.074c0.911-0.099,0.936-0.369,0.936-2.142
				V37.679z"/>
			<path d="M71.042,51.954c-2.067,0-3.372-0.64-3.839-0.91c-0.295-0.542-0.616-2.289-0.665-3.446
				c0.123-0.172,0.492-0.222,0.59-0.073c0.37,1.255,1.378,3.667,4.233,3.667c2.067,0,3.077-1.354,3.077-2.83
				c0-1.083-0.222-2.289-2.018-3.446l-2.338-1.525c-1.23-0.812-2.658-2.216-2.658-4.233c0-2.339,1.821-4.233,5.021-4.233
				c0.763,0,1.649,0.147,2.289,0.319c0.32,0.099,0.665,0.148,0.861,0.148c0.222,0.59,0.443,1.969,0.443,3.002
				c-0.098,0.148-0.492,0.222-0.615,0.074c-0.32-1.182-0.984-2.781-3.347-2.781c-2.412,0-2.929,1.6-2.929,2.732
				c0,1.427,1.181,2.461,2.092,3.027l1.969,1.23c1.55,0.96,3.077,2.387,3.077,4.726C76.285,50.108,74.242,51.954,71.042,51.954z"/>
			<path d="M86.598,41.938c0.197,0.172,0.369,0.565,0.369,0.984c0,0.442-0.246,0.91-0.542,0.91c-0.123,0-0.246-0.049-0.344-0.172
				c-0.542-0.665-1.452-1.305-2.461-1.305c-1.723,0-3.396,1.354-3.396,3.963c0,1.92,1.329,4.208,3.962,4.208
				c1.428,0,2.166-0.64,2.732-1.477c0.197-0.049,0.418,0.123,0.443,0.345c-0.837,1.821-2.683,2.511-4.11,2.511
				c-1.305,0-2.511-0.419-3.372-1.256c-0.861-0.836-1.427-2.042-1.427-3.643c0-2.658,1.87-5.488,5.956-5.488
				C84.973,41.519,85.933,41.642,86.598,41.938z"/>
			<path d="M89.577,37.679c0-1.452-0.025-1.6-0.763-2.042l-0.246-0.148c-0.123-0.073-0.123-0.418,0-0.492
				c0.615-0.196,1.772-0.565,2.658-1.033c0.099,0,0.197,0.049,0.246,0.147c-0.024,0.738-0.074,1.969-0.074,3.052v5.169
				c0,0.222,0.024,0.418,0.098,0.468c0.886-0.689,2.068-1.28,3.323-1.28c2.338,0,3.175,1.452,3.175,3.175v4.11
				c0,1.772,0.049,2.043,0.935,2.142l0.665,0.074c0.172,0.123,0.123,0.541-0.049,0.615c-0.886-0.05-1.6-0.074-2.461-0.074
				c-0.886,0-1.625,0.024-2.289,0.074c-0.172-0.074-0.222-0.492-0.049-0.615l0.492-0.074c0.911-0.147,0.936-0.369,0.936-2.142v-3.52
				c0-1.575-0.763-2.634-2.338-2.634c-0.837,0-1.477,0.296-1.92,0.665c-0.443,0.369-0.517,0.492-0.517,1.354v4.135
				c0,1.772,0.049,2.019,0.935,2.142l0.517,0.074c0.172,0.098,0.123,0.541-0.049,0.615c-0.738-0.05-1.452-0.074-2.313-0.074
				c-0.886,0-1.625,0.024-2.412,0.074c-0.172-0.074-0.222-0.492-0.049-0.615l0.615-0.074c0.911-0.099,0.936-0.369,0.936-2.142
				V37.679z"/>
			<path d="M111.187,46.613c0,3.077-2.116,5.292-5.193,5.292c-2.83,0-5.045-1.994-5.045-5.07c0-3.102,2.338-5.316,5.243-5.316
				C108.947,41.519,111.187,43.586,111.187,46.613z M105.895,42.257c-1.624,0-2.83,1.551-2.83,4.258c0,2.24,1.01,4.652,3.176,4.652
				c2.165,0,2.83-2.265,2.83-4.16C109.07,44.915,108.232,42.257,105.895,42.257z"/>
			<path d="M123.148,46.613c0,3.077-2.116,5.292-5.192,5.292c-2.831,0-5.046-1.994-5.046-5.07c0-3.102,2.338-5.316,5.242-5.316
				C120.909,41.519,123.148,43.586,123.148,46.613z M117.857,42.257c-1.625,0-2.83,1.551-2.83,4.258c0,2.24,1.009,4.652,3.175,4.652
				c2.165,0,2.83-2.265,2.83-4.16C121.032,44.915,120.195,42.257,117.857,42.257z"/>
			<path d="M127.998,48.804c0,1.772,0.049,2.019,0.936,2.142l0.59,0.074c0.173,0.123,0.123,0.541-0.049,0.615
				c-0.812-0.05-1.525-0.074-2.387-0.074c-0.887,0-1.625,0.024-2.363,0.074c-0.172-0.074-0.222-0.492-0.049-0.615l0.565-0.074
				c0.911-0.123,0.936-0.369,0.936-2.142V37.679c0-1.452-0.024-1.6-0.763-2.042l-0.246-0.148c-0.123-0.073-0.123-0.418,0-0.492
				c0.615-0.196,1.771-0.565,2.658-1.033c0.098,0,0.196,0.049,0.246,0.147c-0.025,0.738-0.074,1.969-0.074,3.052V48.804z"/>
		</g>
	</g>
</g>
<g id="Layer_3_1_">
	<path display="none" fill="#3E7C3B" d="M181.882,16.594c3.753,3.617,6.361,8.058,7.29,14.308
		c0.992,6.706-1.143,12.807-3.965,16.938c-2.836,4.156-6.912,7.635-12.16,9.407c-2.762,0.935-5.792,1.55-9.104,1.392
		c-3.276-0.154-6.067-0.815-8.651-1.996c-4.894-2.233-8.817-5.531-11.435-10.135c-1.303-2.293-2.482-4.847-2.996-7.803
		c-0.532-3.098-0.61-6.082,0-9.438c0.529-2.893,1.742-5.585,3.027-7.774c2.61-4.447,6.702-7.854,11.584-9.981
		c2.211-0.963,4.682-1.582,7.623-1.816c4.223-0.335,8.352,0.571,11.436,1.937C177.422,12.912,179.833,14.542,181.882,16.594z
		 M159.135,11.301c-4.691,1.161-8.306,3.566-11.223,6.534c-1.959,1.994-3.543,4.348-4.719,7.109
		c-1.18,2.769-1.834,6.124-1.816,9.829c0.021,3.396,1.044,6.766,2.3,9.349c2.642,5.421,6.537,9.173,12.009,11.646
		c2.726,1.23,6.022,1.93,9.649,1.905c3.531-0.022,6.778-0.946,9.53-2.179c2.697-1.21,5.039-2.985,6.895-4.932
		c1.947-2.043,3.52-4.35,4.749-7.076c1.242-2.764,1.907-5.983,1.907-9.863c0-3.535-0.964-6.841-2.209-9.498
		c-1.27-2.7-2.938-4.862-4.961-6.866c-1.932-1.91-4.319-3.566-7.078-4.75c-2.639-1.129-6.244-2.073-9.771-1.905
		C162.391,10.7,160.764,10.896,159.135,11.301z"/>
	<g display="none">
		<path display="inline" fill="#231F20" d="M162.645,4.312c0.119,0.741,0.201,1.574,0.303,2.45c0.033,0.293,0.158,0.599,0.121,0.816
			c-0.062,0.37-0.596,0.699-0.756,1.029c-0.301,0.087-0.611,0.105-0.938,0.15c-0.303,0.042-0.702,0.165-0.971,0.123
			c-0.369-0.061-0.698-0.642-1.026-0.788c-0.099-0.772-0.231-1.709-0.333-2.449c-0.042-0.288-0.126-0.636-0.091-0.847
			c0.073-0.445,0.569-0.645,0.755-1.029c0.648,0,1.239-0.273,1.786-0.242C162.042,3.558,162.227,4.133,162.645,4.312z
			 M160.465,5.008c0.131,0.979,0.178,1.613,0.333,2.511c0.272-0.009,0.459-0.105,0.757-0.091c-0.103-0.855-0.209-1.708-0.334-2.541
			C160.932,4.956,160.736,4.951,160.465,5.008z"/>
		<path display="inline" fill="#231F20" d="M170.355,3.889c0.229,1.295,0.397,2.648,0.574,3.994c0.131,0.052,0.305,0.06,0.453,0.091
			c-0.027,0.354-0.093,0.932-0.21,1.301c-0.679-0.129-1.407-0.208-2.058-0.362c0.066-0.44,0.139-0.77,0.182-1.18
			c0.086-0.054,0.204,0.064,0.362,0.03c0.022-0.154-0.042-0.22-0.029-0.362c-0.306-0.108-0.714-0.113-1.028-0.212
			c-0.101,0.08-0.136,0.226-0.211,0.332c0.021,0.109,0.229,0.031,0.303,0.09c-0.035,0.428-0.118,0.81-0.182,1.209
			c-0.691-0.103-1.303-0.19-1.998-0.332c0.075-0.418,0.114-0.875,0.211-1.271c0.18-0.018,0.246,0.078,0.426,0.061
			c0.617-1.177,1.229-2.36,1.813-3.57C169.468,3.729,169.954,3.859,170.355,3.889z M169.057,6.248
			c0.131,0.032,0.245,0.078,0.424,0.061c-0.025-0.256-0.033-0.531-0.121-0.726C169.268,5.816,169.117,5.986,169.057,6.248z"/>
		<path display="inline" fill="#231F20" d="M175.499,5.372c-0.138,0.407-0.294,0.795-0.423,1.21
			c-0.186-0.016-0.309-0.096-0.453-0.152c-0.316,0.754-0.592,1.546-0.848,2.359c0.189,0.124,0.447,0.177,0.664,0.272
			c0.168-0.187,0.172-0.534,0.307-0.756c0.477,0.137,0.914,0.314,1.359,0.484c-0.158,0.731-0.475,1.302-0.668,1.998
			c-1.321-0.41-2.533-0.934-3.84-1.362c0.077-0.466,0.272-0.815,0.395-1.24c0.154-0.014,0.199,0.083,0.332,0.091
			c0.32-0.74,0.58-1.538,0.849-2.329c-0.052-0.1-0.226-0.079-0.304-0.151c0.115-0.439,0.29-0.816,0.423-1.24
			C174.045,4.808,174.805,5.059,175.499,5.372z"/>
		<path display="inline" fill="#231F20" d="M156.2,5.946c-0.116,0.066-0.269,0.094-0.425,0.122c0.199,0.851,0.488,1.61,0.727,2.42
			c0.264-0.05,0.475-0.152,0.727-0.212c-0.049-0.284-0.182-0.484-0.211-0.787c0.463-0.145,0.909-0.302,1.392-0.424
			c0.204,0.674,0.432,1.323,0.606,2.027c-1.299,0.408-2.591,0.819-3.902,1.21c-0.112-0.423-0.266-0.805-0.363-1.241
			c0.086-0.053,0.229-0.053,0.302-0.121c-0.185-0.843-0.497-1.559-0.694-2.389c-0.16-0.01-0.226,0.079-0.395,0.061
			c-0.111-0.413-0.24-0.807-0.361-1.21c0.705-0.281,1.482-0.492,2.238-0.725C155.96,5.098,156.122,5.479,156.2,5.946z"/>
		<path display="inline" fill="#231F20" d="M182.093,8.698c-0.249,0.569-0.581,1.054-0.876,1.574
			c-0.375-0.167-0.722-0.367-1.027-0.606c0.026-0.184,0.156-0.265,0.211-0.423c-0.028-0.094-0.168-0.075-0.211-0.151
			c-0.453,0.697-0.844,1.458-1.271,2.177c0.079,0.082,0.229,0.094,0.273,0.212c-0.162,0.415-0.426,0.727-0.606,1.12
			c-0.655-0.355-1.291-0.727-1.905-1.12c0.163-0.412,0.413-0.733,0.604-1.119c0.159,0.001,0.204,0.118,0.335,0.151
			c0.432-0.696,0.829-1.427,1.236-2.147c-0.03-0.089-0.137-0.105-0.211-0.152c-0.127,0.104-0.148,0.314-0.271,0.424
			c-0.332-0.203-0.717-0.352-1-0.605c0.261-0.557,0.59-1.044,0.878-1.573C179.533,7.205,180.843,7.922,182.093,8.698z"/>
		<path display="inline" fill="#231F20" d="M153.689,9.515c0.123-0.079,0.229-0.173,0.393-0.212
			c0.258,0.307,0.409,0.721,0.605,1.089c-0.543,0.424-1.215,0.722-1.877,1.028c-0.125-0.398-0.373-0.677-0.516-1.059
			c0.025-0.126,0.219-0.088,0.273-0.183c-0.049-0.143-0.174-0.209-0.273-0.303c-0.301,0.181-0.633,0.334-0.936,0.514
			c0,0.151,0.037,0.267,0.061,0.395c0.118-0.023,0.198-0.085,0.271-0.152c0.238,0.318,0.427,0.685,0.576,1.089
			c-0.562,0.346-1.142,0.675-1.787,0.938c-0.188-0.366-0.377-0.731-0.572-1.088c0.07-0.142,0.242-0.181,0.393-0.242
			c-0.225-1.35-0.484-2.661-0.695-4.022c0.414-0.201,0.789-0.44,1.209-0.635C151.816,7.577,152.738,8.56,153.689,9.515z
			 M151.18,9.365c0.084-0.106,0.254-0.129,0.361-0.211c-0.129-0.212-0.309-0.376-0.482-0.544C151.068,8.889,151.1,9.15,151.18,9.365
			z"/>
		<path display="inline" fill="#231F20" d="M147.58,9.606c0.309,0.458,0.673,0.858,0.999,1.3c-0.013,0.462-0.089,0.859-0.122,1.301
			c-0.354,0.24-0.662,0.527-0.997,0.787c0.011,0.14,0.093,0.208,0.181,0.273c0.305-0.341,0.428-0.072,0.696,0.272
			c0.167,0.214,0.334,0.392,0.394,0.515c-0.513,0.515-1.127,0.93-1.694,1.391c-0.308-0.287-0.528-0.663-0.815-0.968
			c0.049-0.122,0.174-0.168,0.271-0.242c-0.519-0.661-1.035-1.324-1.571-1.966c-0.137,0.015-0.167,0.134-0.273,0.181
			c-0.313-0.289-0.559-0.65-0.815-0.999c0.797-0.715,1.653-1.37,2.512-2.026C146.805,9.527,147.161,9.535,147.58,9.606z
			 M146.581,10.876c-0.146,0.146-0.302,0.284-0.483,0.393c0.133,0.27,0.344,0.462,0.516,0.695c0.203-0.127,0.41-0.253,0.545-0.452
			C146.948,11.316,146.854,11.009,146.581,10.876z"/>
		<path display="inline" fill="#231F20" d="M185.331,11.301c0.078,0.394,0.065,0.879,0.12,1.3c-0.717,0.846-1.419,1.708-2.148,2.542
			c-0.357,0.029-0.837,0.051-1.238,0.121c-0.522-0.426-1.054-0.842-1.543-1.3c-0.002-0.441-0.061-0.827-0.092-1.242
			c0.733-0.859,1.432-1.754,2.18-2.602c0.473,0.046,0.793-0.148,1.148-0.09c0.268,0.042,0.602,0.421,0.814,0.604
			C184.857,10.878,185.115,11.092,185.331,11.301z M183.423,11.451c-0.504,0.665-1.083,1.255-1.569,1.935
			c0.203,0.157,0.36,0.365,0.604,0.485c0.491-0.678,1.077-1.264,1.572-1.936C183.832,11.77,183.665,11.574,183.423,11.451z"/>
	</g>
	<path fill="#3E7C3B" d="M168.378,2.733c0.031,0,0.062,0,0.089,0c-0.369,4.081-0.861,8.628-1.339,13.123
		c4.532-0.752,9.339-1.567,14.03-2.332c0.613-0.099,1.527-0.391,1.945-0.129c0.722,0.452,0.09,1.674-0.867,1.469
		c-1.041,9.466-2.191,19.131-3.237,28.622c1.938-0.65,3.169-1.955,3.929-3.844c0.084-0.203,0.108-0.561,0.391-0.604
		c-0.201,1.312-0.61,2.411-0.905,3.625c-5.129,2.028-10.8,4.194-17.788,3.844c-4.488-0.224-8.148-1.554-11.182-3.409
		c-2.637-1.613-4.828-3.797-6.476-6.389c-0.213-0.336-0.321-0.904-0.821-0.991c-0.289,0.371,0.141,0.806,0.304,1.076
		c1.388,2.313,3.338,4.31,5.524,5.869c2.555,1.829,5.577,3.261,9.107,3.89c7.518,1.338,15.191-0.791,21.111-3.238
		c-0.063,0.425-0.187,0.789-0.346,1.121c-5.384,1.72-11.027,3.395-18.046,3.408c-8.178,0.024-14.696-3.322-17.397-9.062
		c-0.162-0.351-0.203-0.933-0.688-1.078c-0.317,0.303,0.015,0.724,0.128,0.991c1.932,4.578,6.332,7.662,11.612,8.893
		c5.487,1.276,11.71,0.609,16.792-0.518c0.75-0.166,1.583-0.271,2.203-0.518c0.238-0.093,0.379-0.287,0.648-0.385
		c0.594-0.23,1.192-0.18,1.855-0.309c0.958-0.18,1.863-0.649,2.677-0.861c0.152,0.189-0.132,0.63-0.176,0.908
		c1.285,0.318,2.081,0.924,3.323,1.382c1.172,0.427,2.605,0.767,3.888,0.343c0.872-0.289,1.655-0.857,2.286-1.378
		c0.637-0.524,1.176-1.271,2.115-1.426c-0.104,0.724-0.586,1.289-0.99,1.812c-0.389,0.504-0.829,0.991-1.295,1.469
		c-0.807,0.82-1.91,2.072-3.153,2.375c-0.649,0.156-1.095-0.315-1.687-0.26c-0.809,0.072-1.021,1.334-1.51,1.725
		c-1.656,1.789-5.123,0.203-7.295,1.255c-0.865,0.412-1.262,1.288-2.156,1.639c-0.969,0.377-2.162,0.449-3.198,0.478
		c-2.304,0.053-5.152-0.267-7.812-0.822c-0.459-0.094-1.094-0.334-1.512-0.303c-0.445,0.035-0.908,0.481-1.337,0.69
		c-1.31,0.634-2.546,1.464-4.665,1.293c-0.994-0.077-1.961-0.364-2.979-0.473c-0.891-0.097-2.062-0.136-3.151-0.087
		c-0.96,0.043-1.658,0.129-2.853,0.129c-0.914,0.003-2.576-0.145-2.675-0.736c-0.086-0.525,0.413-0.722,0.689-0.992
		c-0.615-0.369-1.394-0.707-2.241-1.248c-0.803-0.508-2.596-1.631-1.122-2.418c-2.17-1.438-3.862-3.492-5.31-5.697
		c-0.475-0.725-1.111-1.473-1.125-2.42c0.453-0.077,0.781,0.297,1.125,0.518c0.935,0.613,2.904,1.561,4.271,0.865
		c0.613-0.312,1.477-1.124,1.598-1.944c0.105-0.688-0.066-1.496-0.043-2.245c0.047-1.334,0.196-2.695,0.519-3.927
		c0.157-0.6,0.496-1.171,0.562-1.685c0.06-0.451-0.076-1.033-0.127-1.554c-0.101-0.967-0.252-2-0.304-3.065
		c-0.028-0.57-0.006-1.255,0.345-1.337c0.635-0.152,0.852,0.811,0.992,1.164c0.237,0.601,0.422,1.108,0.562,1.555
		c0.433-0.272,0.726-0.824,1.078-1.295c0.351-0.465,0.681-0.966,1.123-1.296c-0.067-2.685,0.176-4.973,0.735-7.295
		c-0.383-0.044-0.978,0.103-1.644,0.217c-0.5,0.083-1.258,0.336-1.686,0c-0.25-0.199-0.294-0.758-0.129-1.037
		c0.203-0.341,1.271-0.431,1.982-0.561c4.556-0.824,9.128-1.545,13.772-2.33c0.392-0.067,0.849-0.04,1.036-0.131
		c0.243-0.116,0.45-0.621,0.605-0.864c0.554-0.868,1.217-1.795,1.728-2.59c0.765-1.199,1.517-2.347,2.157-3.541
		c-0.544,0.092-0.795,0.676-1.123,1.08c-0.316,0.389-0.747,0.908-1.208,1.08c-0.433,0.158-1.158,0.163-1.772,0.214
		c-3.99,0.343-8.568,0.714-12.346,1.08c0.299-0.587,1.247-0.777,2.029-1.036c1.953-0.646,3.886-1.287,6.344-1.554
		c0.439-0.048,1.027-0.015,1.081-0.303c0.06-0.327-0.313-0.359-0.347-0.605c-0.092-0.687,0.896-0.905,1.597-0.949
		c1.235-0.082,2.442,0.296,2.329-1.295c0.387-0.27,0.934-0.551,1.471-0.649c0.995-0.185,2.508,0.154,2.936-0.732
		c0.316-0.659-0.057-1.541,0.217-2.29C167.387,3.313,167.85,3.126,168.378,2.733z M166.393,10.029
		c-1.188,1.92-2.512,3.988-3.711,5.87c-0.178,0.277-0.472,0.539-0.433,0.778c1.28-0.146,2.414-0.434,3.669-0.606
		c0.239-1.663,0.434-3.845,0.605-5.352c0.022-0.213,0.178-0.537-0.043-0.69C166.45,10.029,166.423,10.029,166.393,10.029z
		 M181.676,14.952c-0.547,0.126-1.197,0.2-1.814,0.301c-0.537,0.089-1.193,0.109-1.639,0.302c-0.416,0.18-0.936,0.881-1.297,1.252
		c-2.921,3.02-5.208,7.055-4.879,12.864c0.167,2.889,1.211,5.565,2.376,7.815c1.101,2.115,2.392,4.092,3.888,5.699
		c0.045,0.045,0.115,0.279,0.258,0.211c0.854-8.174,2.033-16.748,2.851-24.993c0.118-1.163,0.358-2.303,0.304-3.455
		C181.705,14.952,181.688,14.952,181.676,14.952z M173.73,16.289c-2.694,3.328-5.265,7.543-5.265,13.556
		c0,3.246,1.017,5.979,1.943,8.33c-0.788-0.321-1.55-0.664-2.375-0.948c-1.666-2.903-3.22-6.659-2.548-11.14
		c0.558-3.72,2.324-6.574,4.361-8.763c0.139-0.15,0.381-0.318,0.303-0.432c-0.571,0.133-1.188,0.221-1.813,0.302
		c-1.925,2.248-3.665,5.277-4.103,8.98c-0.463,3.951,0.604,7.695,2.029,10.534c-0.356,0.034-0.787-0.217-1.296-0.174
		c-0.271,2.889-0.554,5.616-0.862,8.463c5.076,0.397,9.804,0.317,14.42-1.253c-0.354-0.483-0.896-0.812-1.383-1.209
		c-1.474-1.199-3.086-2.321-4.75-3.279c-2.02-3.406-3.187-8.092-2.373-12.736c0.728-4.141,2.86-7.424,5.138-10.016
		c0.131-0.147,0.385-0.279,0.344-0.518C174.98,16.084,174.366,16.194,173.73,16.289z M163.674,17.972
		c-1.878,2.128-3.379,5.214-3.367,9.152c0.012,3.627,1.159,6.668,2.203,9.283c-0.611,0.095-1.287,0.122-1.857,0.256
		c-1.125-2.238-2.303-5.227-2.721-8.33c-0.529-3.907,0.711-7.38,2.59-9.367c0.168-0.175,0.469-0.323,0.434-0.518
		c-0.604,0.104-1.146,0.262-1.814,0.303c-0.906,1.026-1.595,2.38-2.027,3.928c-1.465,5.22,0.562,10.617,2.285,14.375
		c-0.664,0.154-1.223,0.415-1.769,0.693c-1.59-2.387-3.104-5.265-3.538-8.896c-0.386-3.208,0.395-6.335,1.641-8.634
		c0.188-0.35,0.463-0.674,0.432-0.95c-0.497,0.052-0.878,0.215-1.428,0.215c-1.528,2.589-2.342,6.231-1.811,10.061
		c0.484,3.528,2.075,6.32,3.538,8.765c-0.555,0.383-1.17,0.7-1.771,1.034c-1.779-2.383-3.521-5.236-4.314-8.721
		c-0.904-3.933,0.212-8.012,1.639-10.665c-0.473,0.103-0.949,0.201-1.469,0.26c-1.591,2.911-2.152,7.141-1.295,10.836
		c0.622,2.667,1.68,4.987,2.979,6.95c0.438,0.664,0.981,1.247,1.297,1.944c-1.987,0.83-2.78-0.965-3.498-2.16
		c-1.262-2.104-2.168-5.007-2.549-7.683c-0.077,0.713-0.828,1.567-0.817,2.244c0.003,0.263,0.303,0.875,0.476,1.294
		c1.239,2.979,3.099,5.57,5.267,7.428c2.728,2.33,6.254,3.539,10.532,3.841c0.332-2.609,0.582-5.603,0.908-8.377
		c-0.22-0.166-0.211-0.3-0.174-0.69c-1.145-2.805-2.488-6.085-2.072-10.016c0.338-3.213,1.614-5.668,3.367-7.382
		c0.235-0.23,0.687-0.484,0.604-0.777C164.952,17.783,164.352,17.916,163.674,17.972z M145.068,31.614
		c-0.635-0.075-0.485-1.118-0.908-1.336c0.244,1.481,0.229,3.222,0.605,4.576c0.58-1.507,1.307-3.095,1.77-4.576
		C146.073,30.708,145.8,31.703,145.068,31.614z M144.593,35.977c-0.188-0.019-0.305-0.312-0.388-0.129
		c-0.223,1.174-0.43,2.639-0.521,4.101c-0.183,2.93,0.295,5.743,1.125,7.858c0.418,1.065,0.973,2.312,1.641,2.979
		c0.316,0.318,0.89,0.632,1.426,0.477c-0.568-0.971-1.312-1.854-1.855-2.979c-1.566-3.235-1.752-8.401-0.865-12.478
		C145.018,35.854,144.877,36,144.593,35.977z M150.378,45.988c-1.733-1.256-3.396-2.904-4.317-5.006
		c-0.188-0.428-0.309-1.275-0.733-0.777c0.098,0.861,0.769,1.919,1.296,2.677c1.162,1.675,2.316,2.8,4.014,3.841
		c0.838,0.518,1.74,1.121,2.592,1.383c0.478,0.146,1.011,0.215,1.514,0.387c0.938,0.326,1.861,0.853,2.976,0.904
		c0.117-0.143,0.333-0.186,0.349-0.43C154.992,48.402,152.586,47.598,150.378,45.988z M145.93,44.262
		c-0.178-0.455-0.211-1.289-0.691-0.902c0.513,2.758,2.367,4.539,4.49,5.822c0.104-0.121,0.308-0.147,0.35-0.341
		C148.379,47.827,146.723,46.32,145.93,44.262z M174.034,48.234c0.489,0.062,1.021,0.334,1.513,0.135
		c0.037-0.184,0.117-0.318,0.13-0.521C175.102,47.955,174.521,48.045,174.034,48.234z M168.467,49.616
		c0.821-0.107,1.665-0.203,2.461-0.345c0.229-0.177,0.407-0.399,0.688-0.521c-0.005-0.049-0.013-0.099-0.083-0.085
		c-1.114,0.239-2.487,0.402-3.585,0.516C168.055,49.395,168.336,49.43,168.467,49.616z M162.293,49.919
		c0.73,0.029,1.73,0.067,2.029-0.474c-0.805,0.01-1.705-0.004-2.333-0.047C162.025,49.641,162.152,49.783,162.293,49.919z
		 M169.548,50.697c0.134,0.091,0.144,0.314,0.343,0.347c0.034-0.153,0.144-0.231,0.129-0.437
		C169.831,50.605,169.662,50.628,169.548,50.697z"/>
	<path display="none" fill="#231F20" d="M138.657,41.003c-0.114-0.46-0.194-0.956-0.272-1.45c0.08-0.029,0.159-0.062,0.272-0.06
		c-0.046-0.257-0.089-0.519-0.152-0.759c-0.167,0.037-0.348,0.059-0.515,0.093c-0.042,0.567,0.351,1.149,0.273,1.635
		c-0.055,0.34-0.421,0.454-0.546,0.757c-0.627,0.096-1.099,0.17-1.663,0.301c-0.384-0.229-0.729-0.498-1.089-0.756
		c0.054-0.602-0.414-1.355-0.332-1.935c0.062-0.438,0.539-0.646,0.694-1.029c0.271-0.061,0.544-0.12,0.848-0.151
		c0.106,0.47,0.203,0.945,0.272,1.453c-0.144,0.026-0.298,0.045-0.425,0.09c0.05,0.231,0.101,0.467,0.121,0.728
		c0.354-0.022,0.504-0.094,0.816-0.123c0.028-0.536-0.338-1.087-0.271-1.54c0.05-0.355,0.416-0.484,0.543-0.789
		c0.453-0.111,0.978-0.152,1.424-0.271c0.367,0.229,0.714,0.477,1.061,0.727c0.03,0.331,0.121,0.655,0.182,0.998
		c0.054,0.319,0.211,0.715,0.182,0.969c-0.047,0.365-0.543,0.653-0.665,0.998C139.12,40.884,138.92,40.975,138.657,41.003z"/>
	<path display="none" fill="#231F20" d="M195.372,37.736c-0.188,1.354-0.488,2.727-0.665,3.992c-0.371-0.02-0.91-0.114-1.303-0.213
		c0.021-0.106,0.033-0.228,0.062-0.332c-0.85-0.182-1.593-0.281-2.451-0.453c-0.113,0.037-0.05,0.254-0.121,0.334
		c-0.371-0.006-0.867-0.141-1.27-0.213c0.1-0.785,0.238-1.537,0.395-2.268c0.344,0.025,0.871,0.134,1.271,0.212
		c0.008,0.181-0.034,0.308-0.062,0.454c0.836,0.186,1.639,0.292,2.451,0.452c0.104-0.177,0.116-0.446,0.15-0.695
		c-0.161-0.141-0.484-0.094-0.757-0.184c0.03-0.521,0.145-0.964,0.243-1.421C193.934,37.463,194.704,37.632,195.372,37.736z"/>
	<path display="none" fill="#231F20" d="M140.318,41.307c0.551,1.227,1.006,2.545,1.453,3.871c-0.518,0.15-0.961,0.372-1.482,0.516
		c-0.156-0.448-0.329-0.883-0.484-1.332c-0.015-0.146,0.188-0.071,0.213-0.182c-0.07-0.23-0.16-0.441-0.242-0.664
		c-0.209,0.053-0.397,0.125-0.574,0.209c0.15,0.373,0.301,0.75,0.424,1.152c-0.366,0.157-0.768,0.283-1.15,0.423
		c-0.154-0.37-0.295-0.755-0.424-1.147c-0.23,0.05-0.418,0.146-0.637,0.209c0.057,0.259,0.156,0.472,0.243,0.697
		c0.147,0.008,0.19-0.093,0.333-0.092c0.187,0.448,0.355,0.916,0.515,1.393c-0.479,0.215-1.024,0.367-1.513,0.572
		c-0.536-1.236-1.016-2.531-1.452-3.869c0.403-0.143,0.774-0.314,1.212-0.424c0.055,0.084,0.073,0.207,0.119,0.303
		c0.806-0.264,1.561-0.578,2.359-0.848c0.021-0.13-0.146-0.232-0.061-0.33C139.499,41.555,139.947,41.469,140.318,41.307z"/>
	<path display="none" fill="#231F20" d="M193.346,45.814c-0.367,0.186-0.783,0.324-1.148,0.514c-1.082-0.35-2.081-0.783-3.178-1.118
		c-0.086-0.442-0.494-0.719-0.516-1.151c-0.009-0.26,0.198-0.676,0.305-0.968c0.118-0.327,0.248-0.633,0.363-0.907
		c0.359-0.158,0.711-0.32,1.027-0.483c0.029-0.019,0.086-0.034,0.121-0.031c0.445,0.065,0.998,0.347,1.543,0.547
		c0.546,0.197,1.092,0.398,1.543,0.545c0.113,0.183,0.234,0.369,0.332,0.573c0.086,0.182,0.266,0.452,0.272,0.635
		c0.009,0.254-0.229,0.646-0.333,0.938C193.562,45.232,193.443,45.527,193.346,45.814z M189.957,43.968
		c0.835,0.224,1.562,0.556,2.359,0.817c0.084-0.24,0.184-0.465,0.242-0.727c-0.812-0.261-1.562-0.574-2.36-0.847
		C190.131,43.475,189.99,43.668,189.957,43.968z"/>
	<path display="none" fill="#231F20" d="M142.92,47.145c-0.402,0.795-0.918,1.481-1.302,2.299c0.327-0.026,0.624-0.344,0.938-0.481
		c-0.012-0.162-0.134-0.208-0.152-0.364c0.367-0.187,0.656-0.455,1.06-0.605c0.306,0.564,0.659,1.076,0.968,1.636
		c-0.275,0.308-0.686,0.479-1.059,0.696c-0.156-0.006-0.114-0.207-0.242-0.242c-1.105,0.637-2.162,1.325-3.268,1.966
		c-0.125-0.166-0.209-0.343-0.332-0.544c-0.094-0.152-0.323-0.389-0.331-0.545c-0.013-0.169,0.248-0.47,0.36-0.668
		c0.358-0.605,0.782-1.389,1.061-1.965c-0.385,0.092-0.762,0.443-1.15,0.636c0.073,0.128,0.165,0.238,0.213,0.392
		c-0.336,0.22-0.687,0.422-1.025,0.637c-0.411-0.535-0.751-1.145-1.09-1.752c0.371-0.227,0.732-0.458,1.119-0.668
		c0.057,0.104,0.117,0.205,0.185,0.306c0.739-0.399,1.403-0.877,2.146-1.271c0.002-0.164-0.144-0.183-0.151-0.336
		c0.308-0.274,0.735-0.434,1.06-0.692C142.32,46.03,142.592,46.618,142.92,47.145z"/>
	<path display="none" fill="#231F20" d="M191.652,47.447c0.018,0.482,0.363,0.83,0.332,1.24c-0.022,0.272-0.338,0.617-0.483,0.877
		c-0.183,0.317-0.329,0.613-0.483,0.877c-0.469,0.01-0.812,0.332-1.211,0.305c-0.189-0.016-0.554-0.28-0.756-0.395
		c-0.715-0.404-1.516-0.903-2.178-1.271c-0.057-0.429-0.372-0.826-0.333-1.209c0.026-0.269,0.333-0.606,0.483-0.88
		c0.172-0.312,0.336-0.594,0.484-0.846c0.44-0.041,0.797-0.34,1.18-0.334c0.215,0.004,0.531,0.254,0.787,0.395
		C190.146,46.577,191.014,47.107,191.652,47.447z M187.992,47.99c0.74,0.41,1.435,0.865,2.207,1.242
		c0.078-0.266,0.273-0.412,0.334-0.693c-0.758-0.375-1.434-0.825-2.18-1.213C188.252,47.564,188.093,47.75,187.992,47.99z"/>
	<path display="none" fill="#231F20" d="M186.811,49.927c-0.019,0.11-0.112,0.147-0.147,0.242c0.622,0.548,1.265,1.074,1.905,1.604
		c0.09-0.041,0.123-0.139,0.181-0.213c0.371,0.234,0.661,0.551,0.998,0.817c-0.334,0.592-0.822,1.034-1.242,1.541
		c-0.328-0.214-0.59-0.497-0.905-0.724c-0.006-0.088,0.008-0.154,0.061-0.184c-0.148-0.185-0.346-0.32-0.544-0.453
		c-0.15,0.183-0.314,0.35-0.454,0.545c0.148,0.172,0.354,0.291,0.515,0.453c0.104,0.006,0.058-0.143,0.181-0.119
		c0.285,0.263,0.58,0.506,0.877,0.756c-0.359,0.584-0.836,1.058-1.271,1.572c-0.368-0.22-0.67-0.502-0.966-0.789
		c-0.082-0.125,0.143-0.166,0.15-0.303c-0.603-0.559-1.256-1.066-1.877-1.604c-0.17,0.016-0.133,0.228-0.303,0.242
		c-0.295-0.291-0.66-0.51-0.938-0.815c0.367-0.59,0.854-1.062,1.271-1.604c0.339,0.226,0.604,0.522,0.938,0.756
		c0.008,0.09-0.067,0.095-0.061,0.184c0.112,0.158,0.287,0.255,0.424,0.391c0.19-0.143,0.33-0.334,0.453-0.543
		c-0.158-0.177-0.389-0.539-0.607-0.304c-0.276-0.267-0.598-0.487-0.876-0.756c0.372-0.556,0.831-1.026,1.243-1.541
		C186.16,49.348,186.504,49.621,186.811,49.927z"/>
	<path display="none" fill="#231F20" d="M146.279,51.771c-0.281,0.314-0.654,0.535-0.938,0.849
		c-0.142-0.042-0.175-0.188-0.272-0.272c-0.637,0.543-1.301,1.059-1.905,1.635c0.024,0.127,0.162,0.142,0.183,0.271
		c-0.272,0.3-0.684,0.627-0.968,0.817c-0.532-0.527-0.965-1.154-1.481-1.694c0.261-0.354,0.67-0.56,0.969-0.876
		c0.125,0.055,0.148,0.211,0.271,0.271c0.642-0.526,1.263-1.078,1.904-1.604c-0.031-0.147-0.174-0.187-0.211-0.332
		c0.301-0.284,0.651-0.519,0.938-0.815C145.286,50.466,145.842,51.188,146.279,51.771z"/>
	<g display="none">
		<path display="inline" fill="#231F20" d="M155.127,57.131c-0.803,1.413-1.584,2.969-2.376,4.486
			c-0.256,0.497-0.582,1.005-0.778,1.513c-0.104,0.272-0.144,0.697-0.132,1.122c-0.532,0.234-0.932,0.591-1.512,0.779
			c-0.603-1.6-1.388-3.379-2.242-5.01c-0.239-0.453-0.59-1.289-0.95-1.427c-0.285-0.105-0.496,0.15-0.562-0.172
			c-0.044-0.21,0.466-0.444,0.778-0.646c0.262-0.166,0.756-0.51,1.035-0.475c0.368,0.043,0.68,0.754,0.907,1.163
			c0.713,1.289,1.399,2.759,1.94,4.144c0.572-1.311,1.256-2.517,1.342-4.315C153.439,57.948,154.273,57.344,155.127,57.131z"/>
		<path display="inline" fill="#231F20" d="M163.547,63.861c-0.105,0.291-0.386,0.397-0.648,0.604
			c-0.232,0.188-0.476,0.479-0.778,0.478c-0.466-0.008-1.011-0.779-1.337-1.211c-0.415-0.543-0.729-1.113-1.037-1.467
			c0.518-0.429,2.018-1.449,0.475-1.771c0.32-0.459,0.842-0.713,1.254-1.077c0.564,0.119,1.225,0.266,1.164,0.909
			c-0.027,0.307-0.363,0.562-0.605,0.776c-0.137,0.119-0.764,0.514-0.776,0.602c-0.019,0.113,0.729,0.924,0.82,1.038
			c0.271,0.327,0.618,0.778,0.907,0.907C163.161,63.729,163.508,63.637,163.547,63.861z"/>
		<path display="inline" fill="#231F20" d="M159.141,56.268c0.411,0.842,0.252,2.211,0.301,3.28
			c0.072,1.544,0.053,3.019,0.134,4.402c-0.55,0.317-1.021,0.709-1.599,0.993c-0.055-1.221,0.104-2.517,0.041-3.928
			c-0.051-1.158,0.155-2.42-0.389-3.283c-0.227-0.164-0.482,0.25-0.604-0.041c-0.071-0.327,0.42-0.5,0.732-0.731
			C158.173,56.648,158.507,56.264,159.141,56.268z"/>
		<path display="inline" fill="#231F20" d="M156.896,64.037c-0.535,0.286-0.965,0.674-1.557,0.906
			c-0.082-1.385,0.213-3.146-0.344-4.062c-0.238-0.062-0.38,0.193-0.518,0.087c-0.205-0.398,0.375-0.58,0.734-0.822
			c0.366-0.244,0.896-0.865,1.337-0.646c0.329,0.162,0.32,1.201,0.345,1.683C156.941,62.232,156.895,63.008,156.896,64.037z"/>
		<path display="inline" fill="#231F20" d="M165.486,59.545c0.461,1.367,0.23,2.705,0.303,4.492
			c-0.559,0.26-0.965,0.674-1.555,0.906c-0.078-1.023,0.173-3.055-0.346-4.014c-0.16-0.156-0.416,0.139-0.562,0
			c-0.133-0.322,0.392-0.595,0.736-0.824C164.52,59.797,165.01,59.395,165.486,59.545z"/>
		<path display="inline" fill="#231F20" d="M166.004,58.294c-0.445,0.688-1.824,1.429-2.244,0.263
			c0.397-0.408,0.84-0.775,1.383-1.039C165.312,57.893,165.605,58.148,166.004,58.294z"/>
		<path display="inline" fill="#231F20" d="M157.156,58.294c-0.42,0.62-1.855,1.445-2.245,0.263c0.308-0.44,0.839-0.656,1.208-1.039
			C156.509,57.729,156.664,58.182,157.156,58.294z"/>
		<path display="inline" fill="#231F20" d="M178.826,59.459c-0.232,0.504-0.602,0.87-0.949,1.252c-0.199,0-0.402,0-0.604,0
			c-0.041,0.908-0.575,1.325-1.209,1.643c-0.152-0.35,0.045-0.623-0.045-0.951c-0.275-1.008-2.072-0.723-1.639,0.435
			c0.46,1.231,4.438,0.197,4.102,2.371c-0.498,1.257-2.194,2.542-3.975,2.767c-0.646,0.078-1.885,0.082-1.898-0.693
			c-0.006-0.403,0.463-0.672,0.734-0.904c0.319-0.273,0.549-0.65,0.948-0.607c0.216,0.336-0.115,0.379-0.041,0.693
			c0.049,0.209,0.406,0.391,0.646,0.432c0.844,0.147,2.181-0.487,2.074-1.293c-0.164-1.268-4.662-0.205-4.057-2.42
			c0.197-0.732,1.824-2.617,3.062-2.678c0.215-0.008,0.424,0.074,0.647,0.089C177.334,59.63,178.092,59.449,178.826,59.459z"/>
		<path display="inline" fill="#231F20" d="M172.48,63.993c-0.473,0.307-0.992,0.788-1.467,0.95
			c-0.168-1.082,0.041-4.229-1.427-3.107c-0.683,0.521-1.271,1.579-1.685,2.46c-0.125,0.267-0.164,0.815-0.646,0.69
			c-0.218-1.312,0.081-3.133-0.519-4.057c-0.28-0.094-0.367,0.233-0.562,0.086c-0.23-0.349,0.312-0.617,0.604-0.822
			c0.432-0.303,0.783-0.639,1.427-0.648c0.494,0.441,0.376,1.493,0.476,2.334c0.702-0.49,1.461-2.156,2.549-2.377
			c0.767-0.152,0.893,1.408,0.99,2.161C172.331,62.484,172.375,63.273,172.48,63.993z"/>
		<path display="inline" fill="#231F20" d="M181.332,61.359c-0.127-0.478-0.688-0.934-1.299-0.648
			c0.134,1.064,1.688,0.705,2.333,1.254c0.907,1.105-1.066,2.727-1.942,2.938c-0.792,0.189-1.859-0.198-1.812-0.995
			c0.035-0.625,0.844-0.8,1.336-1.079c0.046,0.277,0.023,0.628,0.349,0.865c0.354,0.258,1.06,0.218,1.123-0.09
			c0.106-0.523-0.839-0.715-1.166-0.815c-0.761-0.241-1.979-0.552-1.467-1.644c0.194-0.41,1.655-1.502,2.245-1.597
			c0.89-0.142,1.496,0.235,1.509,0.69C182.561,60.864,181.783,60.925,181.332,61.359z"/>
	</g>
	<path display="none" fill="#231F20" d="M146.703,57.883c-0.498-0.04-0.854,0.167-1.24,0.09c-0.287-0.055-0.576-0.472-0.788-0.664
		c-0.282-0.257-0.571-0.427-0.756-0.666c0.058-0.433-0.134-0.844-0.06-1.209c0.035-0.183,0.402-0.506,0.545-0.668
		c0.568-0.643,1.176-1.328,1.724-1.902c0.476,0.052,0.813-0.12,1.179-0.031c0.264,0.064,0.573,0.443,0.787,0.636
		c0.276,0.244,0.514,0.489,0.725,0.696c-0.063,0.458,0.134,0.917,0.031,1.24c-0.062,0.195-0.36,0.494-0.513,0.666
		C147.796,56.665,147.18,57.283,146.703,57.883z M146.883,54.223c-0.531,0.637-1.109,1.229-1.633,1.877
		c0.186,0.168,0.355,0.35,0.575,0.484c0.562-0.618,1.129-1.232,1.663-1.877C147.271,54.561,147.145,54.325,146.883,54.223z"/>
	<path display="none" fill="#231F20" d="M152.146,59.152c-0.242,0.031-0.441,0.104-0.694,0.121c-0.065,0.358-0.106,0.74-0.151,1.121
		c0.088,0.113,0.271,0.133,0.362,0.242c-0.195,0.377-0.433,0.715-0.636,1.088c-0.621-0.285-1.115-0.699-1.725-1
		c0.148-0.375,0.399-0.647,0.576-0.998c0.057-0.06,0.122,0.03,0.211,0.029c-0.021-0.305,0.034-0.529,0.03-0.814
		c-0.07-0.082-0.188-0.113-0.274-0.184c-0.168,0.153-0.242,0.401-0.391,0.575c0.008,0.11,0.128,0.112,0.18,0.181
		c-0.191,0.346-0.396,0.674-0.604,0.998c-0.633-0.314-1.203-0.693-1.785-1.058c0.107-0.356,0.436-0.755,0.636-1.12
		c0.13,0.021,0.163,0.141,0.304,0.15c0.479-0.641,0.846-1.394,1.301-2.058c-0.014-0.168-0.225-0.141-0.273-0.271
		c0.217-0.371,0.439-0.732,0.667-1.09c0.935,0.527,1.825,1.1,2.722,1.664c0.018,0.461,0.312,0.789,0.272,1.18
		S152.252,58.762,152.146,59.152z M150.514,57.672c0.215,0.1,0.348,0.277,0.605,0.333c0.07-0.179,0.199-0.305,0.271-0.483
		c-0.197-0.129-0.396-0.25-0.605-0.363C150.703,57.335,150.561,57.456,150.514,57.672z"/>
	<path display="none" fill="#231F20" d="M178.797,57.7c-0.141,0-0.092-0.189-0.212-0.21c-0.198,0.136-0.427,0.234-0.634,0.361
		c0.072,0.168,0.171,0.312,0.27,0.453c0.512-0.242,0.959-0.557,1.452-0.814c0.288,0.085,0.573,0.169,0.877,0.242
		c0.11,0.24,0.271,0.485,0.425,0.754c0.133,0.23,0.396,0.529,0.424,0.759c0.043,0.397-0.275,0.748-0.305,1.208
		c-0.599,0.314-1.162,0.671-1.753,0.998c-0.401-0.092-0.78-0.205-1.179-0.303c-0.148-0.234-0.297-0.469-0.424-0.728
		c0.328-0.326,0.82-0.489,1.209-0.754c0.164,0.048,0.166,0.256,0.272,0.36c0.198-0.135,0.404-0.26,0.634-0.36
		c-0.066-0.295-0.281-0.444-0.362-0.728c-0.222,0.1-0.44,0.246-0.694,0.394c-0.22,0.125-0.492,0.369-0.695,0.394
		c-0.324,0.039-0.598-0.231-0.968-0.271c-0.207-0.439-0.472-0.818-0.694-1.24c0.101-0.395,0.221-0.767,0.303-1.18
		c0.596-0.364,1.211-0.705,1.814-1.061c0.379,0.099,0.73,0.219,1.118,0.305c0.022,0.281,0.382,0.414,0.333,0.666
		C179.952,57.223,178.943,57.48,178.797,57.7z"/>
	<path display="none" fill="#231F20" d="M158.65,59.124c-0.039,0.427-0.191,0.735-0.242,1.149c-0.094,0.037-0.088-0.01-0.211,0
		c-0.049,0.192-0.1,0.386-0.151,0.574c0.195,0.098,0.442,0.143,0.694,0.182c0.13-0.111,0.089-0.396,0.183-0.545
		c0.015-0.094-0.138-0.021-0.151-0.09c0.056-0.433,0.154-0.813,0.272-1.184c0.627,0.152,1.231,0.324,1.875,0.458
		c-0.03,0.376-0.181,0.884-0.304,1.269c-0.124,0.023-0.154-0.045-0.271-0.028c-0.228,0.771-0.388,1.606-0.604,2.39
		c0.043,0.09,0.22,0.042,0.271,0.12c-0.075,0.438-0.186,0.842-0.303,1.241c-0.646-0.133-1.229-0.32-1.875-0.454
		c0.022-0.447,0.201-0.747,0.242-1.181c0.096-0.041,0.102-0.006,0.211,0c0.043-0.24,0.136-0.428,0.151-0.694
		c-0.203-0.079-0.467-0.099-0.666-0.185c-0.152,0.149-0.121,0.484-0.211,0.699c0.01,0.065,0.164-0.008,0.15,0.09
		c-0.057,0.416-0.178,0.771-0.273,1.149c-0.67-0.147-1.317-0.315-1.967-0.485c0.084-0.431,0.191-0.836,0.305-1.24
		c0.156-0.023,0.229,0.033,0.332,0.062c0.233-0.765,0.414-1.581,0.605-2.391c-0.053-0.106-0.253-0.068-0.333-0.148
		c0.103-0.422,0.181-0.866,0.333-1.239C157.346,58.814,158.014,58.953,158.65,59.124z"/>
	<path display="none" fill="#231F20" d="M172.867,58.761c0.124,0.392,0.197,0.832,0.304,1.24c-0.073,0.051-0.144,0.103-0.274,0.091
		c0.15,0.838,0.385,1.596,0.547,2.422c0.132,0.021,0.168-0.052,0.303-0.031c0.123,0.393,0.201,0.83,0.302,1.242
		c-0.61,0.166-1.348,0.361-1.935,0.451c-0.053-0.402-0.168-0.74-0.242-1.117c-0.037-0.129,0.127-0.054,0.148-0.121
		c-0.011-0.271-0.117-0.445-0.148-0.696c-0.247,0.055-0.505,0.102-0.729,0.184c0.053,0.222,0.115,0.429,0.15,0.663
		c0.005,0.053,0.127-0.029,0.213,0c0.055,0.422,0.206,0.744,0.241,1.182c-0.636,0.172-1.271,0.344-1.966,0.455
		c-0.088-0.43-0.23-0.801-0.271-1.271c0.102-0.029,0.223-0.04,0.332-0.062c-0.179-0.828-0.387-1.627-0.574-2.449
		c-0.119,0.021-0.216,0.065-0.363,0.06c-0.116-0.394-0.188-0.839-0.303-1.24c0.653-0.161,1.293-0.34,1.996-0.454
		c0.112,0.344,0.159,0.75,0.272,1.09c0.026,0.127-0.134,0.063-0.183,0.121c0.065,0.186,0.092,0.412,0.153,0.604
		c0.229-0.054,0.456-0.106,0.693-0.151c0.046-0.152-0.091-0.369-0.091-0.574c-0.043-0.058-0.198-0.002-0.241-0.061
		c-0.039-0.419-0.177-0.73-0.242-1.122C171.598,59.021,172.247,58.9,172.867,58.761z"/>
	<path display="none" fill="#231F20" d="M163.764,59.91c-0.018,0.459-0.061,0.888-0.121,1.299c-0.139,0.02-0.188-0.053-0.334-0.027
		c-0.117,0.828-0.148,1.657-0.242,2.447c0.052,0.104,0.248,0.059,0.365,0.094c-0.014,0.461-0.068,0.881-0.123,1.299
		c-0.82-0.069-1.603-0.142-2.238-0.211c-0.008-0.354,0.076-0.869,0.093-1.301c0.151-0.035,0.272,0.065,0.362,0
		c0.123-0.839,0.141-1.598,0.242-2.449c-0.129-0.093-0.246-0.016-0.395-0.093c0.075-0.38,0.057-0.846,0.15-1.269
		C162.255,59.771,163.13,59.837,163.764,59.91z"/>
	<path display="none" fill="#231F20" d="M168.148,60.666c-0.021,0.307,0.051,0.516,0.031,0.816c-0.438,0.08-0.979,0.052-1.455,0.09
		c-0.072-0.163-0.002-0.286-0.088-0.424c-0.229,0.033-0.496,0.031-0.728,0.061c0.024,0.916,0.088,1.65,0.12,2.514
		c0.277,0.016,0.511-0.015,0.757-0.031c0.038-0.149-0.013-0.274,0-0.515c-0.034-0.075-0.233,0.015-0.272-0.06
		c0.032-0.412-0.061-0.837-0.029-1.15c0.72,0.02,1.127-0.066,1.726-0.061c0.021,0.863,0.103,2.078,0.151,2.994
		c-0.586,0.08-1.168,0.062-1.848,0.093c-0.334,0.015-0.756,0.116-0.968,0.059c-0.372-0.1-0.636-0.694-0.968-0.876
		c-0.032-0.607-0.061-1.216-0.09-1.906c-0.021-0.459-0.155-1.012-0.092-1.33c0.078-0.381,0.703-0.649,0.848-1
		c0.732,0.076,1.426-0.248,1.906-0.09C167.536,59.979,167.783,60.466,168.148,60.666z"/>
	<path display="none" fill="#3E7C3B" d="M164.186,1.015c4.832-0.154,9.821,0.945,13.613,2.602c1.967,0.86,3.733,1.861,5.415,2.935
		c1.696,1.083,3.175,2.4,4.599,3.751c2.922,2.777,5.111,5.853,7.019,9.679c2.28,4.582,3.577,10.5,3.056,17.183
		c-0.287,3.659-1.171,7.011-2.451,9.95c-3.326,7.634-8.858,13.392-16.365,17c-3.762,1.808-8.297,2.951-13.247,3.115
		c-5.164,0.172-9.938-0.928-13.823-2.631c-3.936-1.726-7.211-3.967-10.043-6.654c-2.855-2.711-5.238-5.908-6.988-9.709
		c-1.738-3.78-3.02-8.127-3.238-13.311c-0.215-5.162,1.024-10.076,2.664-13.855c1.729-3.987,3.951-7.003,6.685-9.981
		c1.3-1.416,2.853-2.702,4.478-3.872c3.203-2.306,6.918-4.263,11.402-5.294C159.191,1.409,161.583,1.099,164.186,1.015z
		 M151.209,5.22c-1.824,0.844-3.473,1.927-5.021,3.024c-1.588,1.126-2.989,2.417-4.322,3.751c-1.321,1.322-2.568,2.854-3.602,4.447
		c-2.074,3.206-3.938,6.963-4.748,11.373c-0.416,2.257-0.611,4.701-0.576,7.199c0.035,2.385,0.492,4.703,0.998,6.867
		c0.511,2.17,1.31,4.167,2.148,5.932c1.766,3.698,3.999,6.697,6.773,9.346c2.729,2.605,5.912,4.734,9.74,6.382
		c3.729,1.604,8.453,2.7,13.188,2.51c4.981-0.196,9.14-1.35,12.854-3.085c4.541-2.117,8.295-5.238,11.223-8.923
		c1.773-2.228,3.392-4.751,4.537-7.562c1.537-3.766,2.562-8.422,2.422-13.279c-0.141-4.894-1.369-9.087-3.084-12.735
		c-1.725-3.666-4.057-6.625-6.774-9.347c-1.928-1.925-4.429-3.767-6.989-5.081c-0.887-0.457-1.764-0.981-2.692-1.361
		c-3.783-1.55-8.29-2.585-12.976-2.481c0,0-0.021,0-0.029,0C159.096,2.33,154.88,3.522,151.209,5.22z"/>
	<path display="none" fill="#231F20" d="M183.816,54.283c-0.271,0.415-0.711,0.66-1.088,0.968c-0.205-0.069-0.242-0.306-0.396-0.424
		c-0.256,0.097-0.388,0.319-0.604,0.453c0.494,0.675,1.069,1.271,1.572,1.938c0.245-0.118,0.426-0.301,0.605-0.483
		c-0.133-0.201-0.305-0.363-0.452-0.547c0.319-0.375,0.731-0.658,1.116-0.965c0.289,0.256,0.521,0.567,0.757,0.875
		c-0.073,0.408-0.099,0.869-0.149,1.301c-0.3,0.303-0.729,0.582-1.121,0.906c-0.141,0.116-0.24,0.277-0.361,0.305
		c-0.435,0.09-0.779-0.176-1.271-0.123c-0.525-0.633-1.048-1.277-1.633-1.963c-0.159-0.188-0.479-0.479-0.516-0.668
		c-0.024-0.144,0.08-1.055,0.123-1.149c0.068-0.16,0.444-0.396,0.727-0.634c0.238-0.206,0.586-0.608,0.814-0.666
		c0.484-0.122,0.881,0.201,1.271,0.119C183.396,53.793,183.634,54.011,183.816,54.283z"/>
</g>
</svg>
